<svg width="64" height="64" viewBox="0 0 64 64" fill="none" xmlns="http://www.w3.org/2000/svg">
<g clip-path="url(#clip0_108_106)">
<path d="M42.552 11.3333L32 0.78125L21.448 11.3333L30.6667 20.5519V25.4346C26.52 26.0772 23.3333 29.6719 23.3333 33.9972C23.3333 38.3226 26.52 41.9173 30.6667 42.5599V47.9973H24V63.9973H40V47.9973H33.3333V42.5599C37.48 41.9173 40.6667 38.3226 40.6667 33.9972C40.6667 29.6719 37.48 26.0772 33.3333 25.4346V20.5519L42.552 11.3333ZM37.3333 61.3333H26.6667V50.6666H37.3333V61.3333ZM32 4.55192L38.7813 11.3333L32 18.1146L25.2187 11.3333L32 4.55192ZM38 33.9999C38 37.3066 35.3093 39.9999 32 39.9999C28.6907 39.9999 26 37.3066 26 33.9999C26 30.6933 28.6907 27.9999 32 27.9999C35.3093 27.9999 38 30.6906 38 33.9999ZM20.4373 52.3999C21.736 53.6959 21.736 55.8079 20.4373 57.1066L13.3867 64.1573L11.5013 62.2719L17.7733 55.9999H6.66667C2.992 55.9999 0 53.0106 0 49.3333V35.9999C0 32.3253 2.992 29.3333 6.66667 29.3333H18.6667V31.9999H6.66667C4.46133 31.9999 2.66667 33.7946 2.66667 35.9999V49.3333C2.66667 51.5386 4.46133 53.3333 6.66667 53.3333H17.5973L11.5013 47.2373L13.3867 45.3519L20.4373 52.3999ZM64 14.6666V27.9999C64 31.6746 61.008 34.6666 57.3333 34.6666H46.2267L52.4987 40.9386L50.6133 42.8239L43.5627 35.7733C42.2667 34.4746 42.2667 32.3652 43.5627 31.0666L50.6133 24.0159L52.4987 25.9013L46.4027 31.9972H57.3333C59.5387 31.9972 61.3333 30.2026 61.3333 27.9972V14.6639C61.3333 12.4586 59.5387 10.6639 57.3333 10.6639H45.3333V7.99725H57.3333C61.008 7.99725 64 10.9919 64 14.6666Z" fill="white"/>
</g>
<defs>
<clipPath id="clip0_108_106">
<rect width="64" height="64" fill="white"/>
</clipPath>
</defs>
</svg>
