<svg width="64" height="64" viewBox="0 0 64 64" fill="none" xmlns="http://www.w3.org/2000/svg">
<g clip-path="url(#clip0_108_108)">
<path d="M24 40.0001H40V24.0001H24V40.0001ZM26.6667 26.6667H37.3333V37.3334H26.6667V26.6667ZM24 18.6667H40V2.66675H24V18.6667ZM26.6667 5.33341H37.3333V16.0001H26.6667V5.33341ZM24 61.3334H40V45.3334H24V61.3334ZM26.6667 48.0001H37.3333V58.6667H26.6667V48.0001ZM20.4373 52.4001C21.736 53.6961 21.736 55.8081 20.4373 57.1067L13.3867 64.1574L11.5013 62.2721L17.7733 56.0001H6.66667C2.992 56.0001 0 53.0107 0 49.3334V36.0001C0 32.3254 2.992 29.3334 6.66667 29.3334H21.3333V32.0001H6.66667C4.46133 32.0001 2.66667 33.7947 2.66667 36.0001V49.3334C2.66667 51.5387 4.46133 53.3334 6.66667 53.3334H17.5973L11.5013 47.2374L13.3867 45.3521L20.4373 52.4001ZM45.3333 26.6667H42.6667V24.0001H45.3333C46.8053 24.0001 48 22.8027 48 21.3334C48 19.8641 46.8053 18.6667 45.3333 18.6667H42.6667V16.0001H45.3333C48.2747 16.0001 50.6667 18.3921 50.6667 21.3334C50.6667 24.2747 48.2747 26.6667 45.3333 26.6667ZM58.2933 24.2694L63.4667 27.2907L59.4347 34.2001L54.2693 31.1841C52.84 32.4881 51.16 33.4561 49.328 34.0321V40.0001H42.6613V37.3334H46.6613V31.9174C49.5387 31.5574 52.0613 30.0534 53.7547 27.8721L58.4747 30.5494L59.8187 28.2481L55.1173 25.5787C55.6827 24.2774 55.9973 22.8427 55.9973 21.3334C55.9973 19.8667 55.7013 18.4694 55.1653 17.2001L59.8187 14.4187L58.4747 12.1174L53.8293 14.8934C52.136 12.6614 49.5813 11.1147 46.6613 10.7521V5.33608H42.6613V2.66941H49.328V8.63741C51.16 9.21341 52.8347 10.1814 54.2693 11.4827L59.4347 8.46941L63.4667 15.3787L58.2933 18.4001C58.544 19.4241 58.6667 20.3947 58.6667 21.3361C58.6667 22.2774 58.544 23.2454 58.2933 24.2721V24.2694Z" fill="white"/>
</g>
<defs>
<clipPath id="clip0_108_108">
<rect width="64" height="64" fill="white"/>
</clipPath>
</defs>
</svg>
