<svg width="64" height="64" viewBox="0 0 64 64" fill="none" xmlns="http://www.w3.org/2000/svg">
<g clip-path="url(#clip0_108_98)">
<path d="M2.66667 45.3333H32V58.6666H16V55.9999H29.3333V47.9999H0V11.9999C0 8.31992 2.98667 5.33325 6.66667 5.33325H52C55.68 5.33325 58.6667 8.31992 58.6667 11.9999V18.6666H56V11.9999C56 9.78659 54.2133 7.99992 52 7.99992H6.66667C4.45333 7.99992 2.66667 9.78659 2.66667 11.9999V45.3333ZM64 30.6666V63.9999H37.3333V30.6666C37.3333 26.9866 40.32 23.9999 44 23.9999H57.3333C61.0133 23.9999 64 26.9866 64 30.6666ZM61.3333 30.6666C61.3333 28.4533 59.5467 26.6666 57.3333 26.6666H44C41.7867 26.6666 40 28.4533 40 30.6666V61.3333H61.3333V30.6666Z" fill="white"/>
</g>
<defs>
<clipPath id="clip0_108_98">
<rect width="64" height="64" fill="white"/>
</clipPath>
</defs>
</svg>
