<svg width="64" height="64" viewBox="0 0 64 64" fill="none" xmlns="http://www.w3.org/2000/svg">
<path d="M59.6133 14.3413C57.544 10.4293 53.488 8 49.0267 8H14.9733C10.512 8 6.456 10.4293 4.38667 14.3387C2.38667 18.12 0 24.2453 0 31.9413C0 46.6773 5.384 58.6667 12 58.6667C16.3413 58.6667 18.9413 52.944 20.3547 48.144C20.8427 46.4907 22.4107 45.3333 24.1733 45.3333H39.8267C41.5893 45.3333 43.16 46.4907 43.6453 48.144C45.0587 52.944 47.656 58.6667 52 58.6667C58.616 58.6667 64 46.6773 64 31.9413C64 24.2453 61.6133 18.12 59.6133 14.3413ZM52 56C49.9573 56 47.792 52.7813 46.2027 47.3893C45.384 44.6107 42.7627 42.6667 39.8267 42.6667H24.1733C21.2373 42.6667 18.616 44.6107 17.7973 47.3893C16.208 52.7813 14.0427 56 12 56C7.59467 56 2.66667 45.712 2.66667 31.9413C2.66667 24.792 4.88533 19.104 6.744 15.5867C8.352 12.552 11.504 10.6667 14.9733 10.6667H49.0267C52.496 10.6667 55.6507 12.552 57.256 15.5867C59.1147 19.1013 61.3333 24.792 61.3333 31.9413C61.3333 45.712 56.4053 56 52 56ZM24 25.3333C24 26.0693 23.4027 26.6667 22.6667 26.6667H18.6667V30.6667C18.6667 31.4027 18.0693 32 17.3333 32C16.5973 32 16 31.4027 16 30.6667V26.6667H12C11.264 26.6667 10.6667 26.0693 10.6667 25.3333C10.6667 24.5973 11.264 24 12 24H16V20C16 19.264 16.5973 18.6667 17.3333 18.6667C18.0693 18.6667 18.6667 19.264 18.6667 20V24H22.6667C23.4027 24 24 24.5973 24 25.3333ZM42.6667 21.3333C42.6667 19.8613 43.8613 18.6667 45.3333 18.6667C46.8053 18.6667 48 19.8613 48 21.3333C48 22.8053 46.8053 24 45.3333 24C43.8613 24 42.6667 22.8053 42.6667 21.3333ZM42.6667 26.6667C42.6667 28.1387 41.472 29.3333 40 29.3333C38.528 29.3333 37.3333 28.1387 37.3333 26.6667C37.3333 25.1947 38.528 24 40 24C41.472 24 42.6667 25.1947 42.6667 26.6667ZM53.3333 26.6667C53.3333 28.1387 52.1387 29.3333 50.6667 29.3333C49.1947 29.3333 48 28.1387 48 26.6667C48 25.1947 49.1947 24 50.6667 24C52.1387 24 53.3333 25.1947 53.3333 26.6667ZM48 32C48 33.472 46.8053 34.6667 45.3333 34.6667C43.8613 34.6667 42.6667 33.472 42.6667 32C42.6667 30.528 43.8613 29.3333 45.3333 29.3333C46.8053 29.3333 48 30.528 48 32Z" fill="white"/>
</svg>
