<svg width="405" height="177" viewBox="0 0 405 177" fill="none" xmlns="http://www.w3.org/2000/svg">
<path d="M21.6087 87.5001L19.2618 86.7219C19.2618 86.7219 19.5743 74.8469 15.2774 74.0126C12.4649 70.7376 15.6931 -65.8031 25.9743 73.5469C24.0236 74.5364 22.531 76.2417 21.8087 78.3063C21.4215 81.3555 21.3545 84.4369 21.6087 87.5001Z" fill="url(#paint0_linear_68_2)"/>
<path d="M22.8774 76.0282C29.1261 71.3243 33.9115 64.9436 36.6774 57.6278C39.4433 50.3119 40.0762 42.3613 38.5024 34.7C33.9086 14.4344 23.0305 7.7719 21.8586 5.22815C20.8476 3.64418 19.9845 1.97044 19.2805 0.228149L20.1461 56.6938C20.1461 56.6938 18.3524 73.95 22.8774 76.0282Z" fill="url(#paint1_linear_68_2)"/>
<path d="M18.0681 76.7781C18.0681 76.7781 -1.06005 63.75 0.0461985 40.7031C0.149394 33.7551 1.74246 26.9102 4.7178 20.6307C7.69314 14.3512 11.9814 8.78327 17.2931 4.30312C17.9138 3.77577 18.407 3.11461 18.7355 2.36931C19.064 1.62402 19.2194 0.813963 19.1899 0C20.3806 2.5625 20.1868 38.2594 20.3118 42.4344C20.7962 58.675 19.4087 73.7125 18.0681 76.7781Z" fill="url(#paint2_linear_68_2)"/>
<path d="M7.63672 160V134.863H12.4707L20.9961 153.936L29.3457 134.863H34.0039V160H29.6973V142.492L22.877 160H18.9043L11.9434 142.492V160H7.63672Z" fill="#4EA94C"/>
<path d="M176.624 25.6007H175.263C173.58 25.6007 171.995 26.3853 170.972 27.7207L157.042 45.937L143.112 27.7207C142.092 26.3853 140.505 25.6007 138.824 25.6007H137.463L155.029 48.5709L137.086 72.0342H138.447C140.13 72.0342 141.715 71.2496 142.737 69.9142L157.043 51.2064L171.35 69.9142C172.371 71.2496 173.956 72.0342 175.639 72.0342H177L159.057 48.5709L176.624 25.6007ZM131.087 62.8147C126.998 69.0288 118.947 72.2135 111.25 69.4051C104.479 66.9345 100.202 60.2032 100.202 52.9949V51.2192H119.416H137.029V44.6C137.029 34.1845 129.314 25.066 118.944 24.0908C107.044 22.9716 97 32.3416 97 44.014V52.9372C97 61.537 102.148 69.5316 110.24 72.4441C120.812 76.2484 131.932 70.5707 135.692 60.8261H134.67C133.212 60.8261 131.888 61.5963 131.087 62.8147ZM100.202 44.014C100.202 34.7433 107.744 27.2019 117.014 27.2019C126.285 27.2019 133.827 34.7433 133.827 44.014V48.0169H100.202V44.014Z" fill="white"/>
<path d="M145.846 134.863V138.871H133.26V145.199H145.248V149.365H133.207V155.957H146.092V160H128.637V134.863H145.846Z" fill="white"/>
<path d="M249.75 56.6639C254.065 56.6639 257.562 53.1662 257.562 48.8514C257.562 44.5367 254.065 41.0389 249.75 41.0389C245.435 41.0389 241.938 44.5367 241.938 48.8514C241.938 53.1662 245.435 56.6639 249.75 56.6639Z" fill="#00D8FF"/>
<path d="M249.75 66.764C240.36 66.9911 230.993 65.7253 222 63.014C217.846 61.6971 213.971 59.6225 210.572 56.8952C209.275 55.9635 208.195 54.7622 207.405 53.3738C206.616 51.9854 206.137 50.4426 206 48.8515C206 43.6858 211.675 38.6233 221.181 35.3108C230.415 32.3757 240.062 30.9532 249.75 31.0983C259.308 30.9648 268.827 32.3616 277.944 35.2358C281.945 36.5113 285.688 38.4856 289 41.0671C290.275 41.9553 291.339 43.1131 292.117 44.4583C292.894 45.8036 293.367 47.3034 293.5 48.8515C293.5 54.2202 287.156 59.6608 276.938 63.0421C268.119 65.6651 258.949 66.9203 249.75 66.764ZM249.75 34.8358C240.482 34.712 231.253 36.0643 222.409 38.8421C213.659 41.8952 209.738 46.0702 209.738 48.8421C209.738 51.7421 213.953 56.3015 223.209 59.4671C231.813 62.0479 240.771 63.2492 249.75 63.0265C258.551 63.1839 267.325 61.993 275.766 59.4952C285.375 56.3108 289.75 51.7452 289.75 48.8515C289.592 47.8584 289.23 46.9089 288.687 46.0628C288.144 45.2167 287.431 44.4925 286.594 43.9358C283.63 41.6457 280.287 39.896 276.716 38.7671C267.994 36.0288 258.891 34.7017 249.75 34.8358Z" fill="#00D8FF"/>
<path d="M232 87.8171C230.542 87.8505 229.102 87.4969 227.825 86.7921C223.35 84.2108 221.8 76.7671 223.678 66.8765C225.749 57.4111 229.337 48.343 234.303 40.0233C238.962 31.6768 244.926 24.1293 251.969 17.6671C255.072 14.838 258.653 12.5813 262.544 11.0015C263.951 10.3419 265.486 10 267.041 10C268.595 10 270.13 10.3419 271.538 11.0015C276.191 13.6827 277.731 21.8952 275.559 32.4358C273.425 41.3876 269.93 49.9591 265.197 57.8515C260.702 66.0995 254.926 73.5812 248.084 80.0171C244.868 82.957 241.135 85.2763 237.075 86.8577C235.449 87.461 233.734 87.7854 232 87.8171ZM237.541 41.8796C232.803 49.8462 229.365 58.5162 227.353 67.564C225.625 76.6733 227.284 82.1515 229.697 83.5452C232.197 84.9921 238.266 83.6202 245.634 77.1827C252.166 71.0169 257.679 63.8552 261.969 55.964C266.503 48.4187 269.855 40.2238 271.909 31.664C273.953 21.7421 272.188 15.6671 269.681 14.2233C268.742 13.8634 267.738 13.7023 266.733 13.7502C265.729 13.7981 264.745 14.0539 263.844 14.5015C260.38 15.9307 257.196 17.9597 254.438 20.4952C247.708 26.6852 242.012 33.9106 237.563 41.8983L237.541 41.8796Z" fill="#00D8FF"/>
<path d="M267.491 87.8578C263.256 87.8578 257.878 85.2953 252.278 80.4797C245.112 73.9586 239.047 66.3215 234.319 57.864C229.415 49.6589 225.855 40.722 223.775 31.3922C222.873 27.2874 222.706 23.0553 223.281 18.8922C223.414 17.3478 223.885 15.8515 224.659 14.5086C225.433 13.1658 226.493 12.0091 227.763 11.1203C232.409 8.42967 240.294 11.1953 248.341 18.339C255.03 24.6584 260.711 31.9662 265.184 40.0078C270.085 48.0214 273.682 56.7626 275.841 65.9047C276.782 70.16 276.927 74.5527 276.269 78.8609C276.112 80.4497 275.614 81.9858 274.808 83.364C274.002 84.7421 272.908 85.9297 271.6 86.8453C270.344 87.5413 268.926 87.8907 267.491 87.8578ZM237.553 55.9828C242.089 64.0654 247.882 71.3745 254.716 77.6359C261.744 83.6828 267.319 84.9828 269.716 83.5734C272.216 82.1203 274.059 76.189 272.159 66.5922C270.078 57.8638 266.628 49.52 261.938 41.8703C257.668 34.1738 252.246 27.1761 245.859 21.1203C238.284 14.3953 232.141 12.8922 229.638 14.3422C228.857 14.9762 228.217 15.7651 227.757 16.659C227.297 17.5529 227.028 18.5325 226.966 19.5359C226.469 23.2487 226.631 27.02 227.444 30.6765C229.445 39.5989 232.859 48.1441 237.556 55.989L237.553 55.9828Z" fill="#00D8FF"/>
<path d="M240.637 159.965V134.863H252.062C257.195 134.863 259.762 137.107 259.762 141.596C259.762 144.631 257.764 147.145 253.768 149.137L261.73 160H255.859L248.213 149.049V146.922C252.666 146.16 254.893 144.432 254.893 141.736C254.893 139.885 253.85 138.959 251.764 138.959H245.383V159.965H240.637Z" fill="#00D8FF"/>
<path d="M365 94.1449C363.758 94.1449 362.598 93.8137 361.522 93.2339L350.507 86.6915C348.851 85.7805 349.679 85.4493 350.176 85.2836C352.412 84.5383 352.826 84.3727 355.145 83.0476C355.393 82.882 355.725 82.9648 355.973 83.1304L364.42 88.1822C364.752 88.3478 365.166 88.3478 365.414 88.1822L398.458 69.0518C398.789 68.8861 398.954 68.5549 398.954 68.1408V29.9627C398.954 29.5487 398.789 29.2174 398.458 29.0518L365.414 10.0041C365.083 9.83851 364.669 9.83851 364.42 10.0041L331.377 29.0518C331.046 29.2174 330.88 29.6315 330.88 29.9627V68.1408C330.88 68.4721 331.046 68.8861 331.377 69.0518L340.404 74.2691C345.29 76.7536 348.354 73.8551 348.354 70.9565V33.2754C348.354 32.7785 348.768 32.2816 349.348 32.2816H353.571C354.068 32.2816 354.565 32.6957 354.565 33.2754V70.9565C354.565 77.499 351.004 81.3085 344.793 81.3085C342.888 81.3085 341.398 81.3085 337.174 79.2381L328.478 74.2691C326.325 73.0269 325 70.7081 325 68.2236V30.0455C325 27.5611 326.325 25.2422 328.478 24L361.522 4.86956C363.592 3.71015 366.408 3.71015 368.478 4.86956L401.522 24C403.675 25.2422 405 27.5611 405 30.0455V68.2236C405 70.7081 403.675 73.0269 401.522 74.2691L368.478 93.3996C367.402 93.8965 366.159 94.1449 365 94.1449ZM375.186 67.8923C360.694 67.8923 357.712 61.2671 357.712 55.6356C357.712 55.1387 358.126 54.6418 358.706 54.6418H363.012C363.509 54.6418 363.923 54.9731 363.923 55.47C364.586 59.8592 366.491 62.0124 375.269 62.0124C382.226 62.0124 385.207 60.4389 385.207 56.7122C385.207 54.559 384.379 52.9855 373.53 51.9089C364.503 50.9979 358.872 49.0104 358.872 41.8054C358.872 35.0973 364.503 31.1222 373.944 31.1222C384.545 31.1222 389.762 34.766 390.424 42.7164C390.424 42.9648 390.342 43.2133 390.176 43.4617C390.01 43.6273 389.762 43.793 389.513 43.793H385.207C384.793 43.793 384.379 43.4617 384.296 43.0476C383.302 38.4928 380.735 37.0021 373.944 37.0021C366.325 37.0021 365.414 39.6522 365.414 41.6398C365.414 44.0414 366.491 44.7868 376.76 46.1118C386.946 47.4369 391.749 49.3416 391.749 56.4638C391.667 63.7516 385.704 67.8923 375.186 67.8923Z" fill="#539E43"/>
<path d="M354.637 160V134.863H359.295L372.566 153.18V134.863H377.049V160H372.391L359.119 141.297V160H354.637Z" fill="#539E43"/>
<defs>
<linearGradient id="paint0_linear_68_2" x1="5.83258" y1="44.5385" x2="32.8065" y2="53.692" gradientUnits="userSpaceOnUse">
<stop offset="0.231" stop-color="#999875"/>
<stop offset="0.563" stop-color="#9B9977"/>
<stop offset="0.683" stop-color="#A09F7E"/>
<stop offset="0.768" stop-color="#A9A889"/>
<stop offset="0.837" stop-color="#B7B69A"/>
<stop offset="0.896" stop-color="#C9C7B0"/>
<stop offset="0.948" stop-color="#DEDDCB"/>
<stop offset="0.994" stop-color="#F8F6EB"/>
<stop offset="1" stop-color="#FBF9EF"/>
</linearGradient>
<linearGradient id="paint1_linear_68_2" x1="15.7241" y1="-0.175332" x2="27.6492" y2="74.2901" gradientUnits="userSpaceOnUse">
<stop stop-color="#48A547"/>
<stop offset="1" stop-color="#3F9143"/>
</linearGradient>
<linearGradient id="paint2_linear_68_2" x1="-1.5992" y1="42.9844" x2="30.4027" y2="32.267" gradientUnits="userSpaceOnUse">
<stop stop-color="#41A247"/>
<stop offset="0.352" stop-color="#4BA74B"/>
<stop offset="0.956" stop-color="#67B554"/>
<stop offset="1" stop-color="#69B655"/>
</linearGradient>
</defs>
</svg>
