<svg width="64" height="64" viewBox="0 0 64 64" fill="none" xmlns="http://www.w3.org/2000/svg">
<g clip-path="url(#clip0_108_96)">
<path d="M64 50.6667V9.33342C64 5.65608 61.008 2.66675 57.3333 2.66675H6.66667C2.992 2.66675 0 5.65608 0 9.33342V50.6667H30.6667V58.6667H16V61.3334H48V58.6667H33.3333V50.6667H64ZM2.66667 9.33342C2.66667 7.12808 4.46133 5.33341 6.66667 5.33341H57.3333C59.5387 5.33341 61.3333 7.12808 61.3333 9.33342V48.0001H2.66667V9.33342ZM16.3893 25.7227C15.8693 26.2427 15.8693 27.0881 16.3893 27.6081L26.3893 37.6081L24.504 39.4934L14.504 29.4934C12.944 27.9334 12.944 25.3974 14.504 23.8374L24.504 13.8374L26.3893 15.7227L16.3893 25.7227ZM49.4933 23.8374C51.0533 25.3974 51.0533 27.9334 49.4933 29.4934L39.4933 39.4934L37.608 37.6081L47.608 27.6081C48.128 27.0881 48.128 26.2427 47.608 25.7227L37.608 15.7227L39.4933 13.8374L49.4933 23.8374Z" fill="white"/>
</g>
<defs>
<clipPath id="clip0_108_96">
<rect width="64" height="64" fill="white"/>
</clipPath>
</defs>
</svg>
