<svg width="64" height="64" viewBox="0 0 64 64" fill="none" xmlns="http://www.w3.org/2000/svg">
<g clip-path="url(#clip0_108_100)">
<path d="M64 18.4747V53.3333H33.3333V61.3333H46.6667V64H17.3333V61.3333H30.6667V53.3333H0V12C0 8.32266 2.992 5.33333 6.66667 5.33333H41.28C40.6053 6.11999 39.84 7.01599 38.9973 7.99999H6.66667C4.46133 7.99999 2.66667 9.79466 2.66667 12V50.6667H61.3333V21.352L64 18.4747ZM30.0027 26.7253C50.8213 2.37599 50.9147 2.27999 50.96 2.23466C53.9413 -0.738674 58.7893 -0.733341 61.7653 2.23999C64.736 5.21866 64.736 10.0693 61.7653 13.0453L39.9387 36.5867C39.6293 41.456 35.6107 45.336 30.664 45.336H15.7573L16.016 43.784C16.1307 43.0987 18.912 27.3573 30 26.728L30.0027 26.7253ZM37.3333 36C37.3333 32.3227 34.3413 29.3333 30.6667 29.3333C23.1093 29.3333 19.952 38.8507 18.992 42.6667H30.6667C34.3413 42.6667 37.3333 39.6773 37.3333 36ZM39.504 33.1387L45.0133 27.1947C44.128 24.032 41.3573 21.7093 38.064 21.4027C36.3547 23.4 34.7013 25.336 33.2187 27.0693C36.1973 27.9253 38.5467 30.2053 39.504 33.1413V33.1387ZM40.0587 19.0693C43.1573 19.904 45.7253 22.0933 47.0373 25.0133L59.8453 11.2C61.8107 9.22399 61.8107 6.06666 59.8773 4.12533C57.9467 2.19199 54.7893 2.18666 52.8453 4.12533C52.6613 4.33866 46.352 11.7147 40.0587 19.0747V19.0693Z" fill="white"/>
</g>
<defs>
<clipPath id="clip0_108_100">
<rect width="64" height="64" fill="white"/>
</clipPath>
</defs>
</svg>
