<svg width="1000" height="368" viewBox="0 0 1000 368" fill="none" xmlns="http://www.w3.org/2000/svg">
<g clip-path="url(#clip0_66_32)">
<path d="M411.494 200V95.7854H455.172V201.533C455.172 219.157 464.368 230.651 485.824 230.651C505.747 230.651 515.709 218.391 515.709 200.766V95.7854H559.387V200C559.387 240.613 534.866 265.134 485.824 265.134C436.015 265.9 411.494 241.379 411.494 200ZM579.31 135.632H618.391V153.257H619.157C628.353 139.464 640.613 132.567 658.238 132.567C685.824 132.567 701.916 152.49 701.916 180.843V262.835H661.303V188.506C661.303 175.479 654.406 166.284 641.379 166.284C628.352 166.284 619.157 177.778 619.157 193.103V262.835H578.544V135.632H579.31ZM722.605 85.8237H763.218V118.774H722.605V85.8237ZM722.605 135.632H763.218V262.069H722.605V135.632ZM794.636 229.119V168.582H777.778V135.632H794.636V95.7854H833.716V135.632H856.705V168.582H833.716V220.69C833.716 230.651 839.08 232.95 847.51 232.95H856.705V262.069C852.874 262.835 845.211 264.368 834.483 264.368C811.494 264.368 794.636 256.705 794.636 229.119ZM881.992 272.797H895.785C907.28 272.797 912.644 268.199 912.644 259.77C912.644 254.406 910.345 246.743 904.981 233.716L867.433 136.398H909.579L926.437 190.038C930.268 202.299 934.1 219.157 934.1 219.157H934.866C934.866 219.157 938.697 202.299 942.529 190.038L959.387 136.398H1000L956.322 264.368C946.36 294.253 934.1 304.215 908.812 304.215H882.759L881.992 272.797Z" fill="white"/>
<path d="M325.671 257.471V85.8238L177.012 0V65.9004L235.249 99.6169C237.548 101.149 237.548 104.215 235.249 104.981L166.284 144.828C163.985 146.36 161.686 145.594 160.153 144.828L91.1877 104.981C88.8889 104.215 88.8889 100.383 91.1877 99.6169L149.425 65.9004V0L0 85.8238V257.471L56.705 224.521V157.088C56.705 154.789 59.7701 153.257 61.3027 154.023L130.268 193.87C132.567 195.402 133.333 196.935 133.333 199.234V278.927C133.333 281.226 130.268 282.759 128.736 281.992L70.4981 248.276L13.7931 281.226L162.452 367.816L311.111 281.992L254.406 249.042L196.169 282.759C193.87 284.291 191.571 282.759 191.571 279.693V200C191.571 197.701 193.103 195.402 194.636 194.636L263.602 154.789C265.9 153.257 268.199 154.789 268.199 157.854V225.287L325.671 257.471Z" fill="white"/>
<path d="M162.452 367.816L311.111 281.992L254.406 249.042L196.169 282.759C193.87 284.291 191.571 282.759 191.571 279.693V200C191.571 197.701 193.103 195.402 194.636 194.636L263.602 154.789C265.9 153.257 268.199 154.789 268.199 157.854V225.287L324.904 258.238V85.8237L162.452 180.077V367.816Z" fill="white"/>
<path d="M177.012 0V65.9004L235.249 99.6169C237.548 101.149 237.548 104.215 235.249 104.981L166.284 144.828C163.985 146.36 161.686 145.594 160.153 144.828L91.1877 104.981C88.8889 104.215 88.8889 100.383 91.1877 99.6169L149.425 65.9004V0L0 85.8238L162.452 180.077L324.904 85.8238L177.012 0Z" fill="white"/>
<path d="M129.502 282.759L71.2644 249.042L14.5594 281.992L163.218 367.816V180.077L0 85.8237V257.471L56.705 224.521V157.088C56.705 154.789 59.7701 153.257 61.3027 154.023L130.268 193.87C132.567 195.402 133.333 196.935 133.333 199.234V278.927C134.1 281.992 131.801 284.291 129.502 282.759Z" fill="white"/>
</g>
<defs>
<clipPath id="clip0_66_32">
<rect width="1000" height="367.816" fill="white"/>
</clipPath>
</defs>
</svg>
